<svg width="1600" height="1200" viewBox="0 0 1600 1200" fill="none" xmlns="http://www.w3.org/2000/svg">
  <defs>
    <linearGradient id="bg" x1="0" y1="0" x2="1600" y2="1200" gradientUnits="userSpaceOnUse">
      <stop stop-color="#0B2D50"/>
      <stop offset="0.5" stop-color="#0B3E6C"/>
      <stop offset="1" stop-color="#0A1F38"/>
    </linearGradient>
    <linearGradient id="card" x1="0" y1="0" x2="1" y2="1">
      <stop stop-color="#FFFFFF" stop-opacity="0.22"/>
      <stop offset="1" stop-color="#FFFFFF" stop-opacity="0.07"/>
    </linearGradient>
    <linearGradient id="accent" x1="0" y1="0" x2="1" y2="1">
      <stop stop-color="#13C8EC"/>
      <stop offset="1" stop-color="#22D3EE"/>
    </linearGradient>
    <radialGradient id="glowA" cx="0" cy="0" r="1" gradientUnits="userSpaceOnUse" gradientTransform="translate(420 210) rotate(35) scale(430 340)">
      <stop stop-color="#38BDF8" stop-opacity="0.45"/>
      <stop offset="1" stop-color="#38BDF8" stop-opacity="0"/>
    </radialGradient>
    <radialGradient id="glowB" cx="0" cy="0" r="1" gradientUnits="userSpaceOnUse" gradientTransform="translate(1210 970) rotate(20) scale(520 410)">
      <stop stop-color="#7DD3FC" stop-opacity="0.26"/>
      <stop offset="1" stop-color="#7DD3FC" stop-opacity="0"/>
    </radialGradient>
  </defs>

  <rect width="1600" height="1200" fill="url(#bg)"/>
  <rect width="1600" height="1200" fill="url(#glowA)"/>
  <rect width="1600" height="1200" fill="url(#glowB)"/>

  <g opacity="0.72">
    <path d="M0 890L280 760L540 840L790 700L1060 830L1310 670L1600 790V1200H0V890Z" fill="#0E4C7F"/>
    <path d="M0 950L230 840L510 905L760 790L1040 900L1320 750L1600 850V1200H0V950Z" fill="#0D3F69"/>
  </g>

  <g opacity="0.9">
    <rect x="230" y="170" width="1140" height="660" rx="34" fill="url(#card)" stroke="rgba(255,255,255,0.28)"/>
    <rect x="278" y="220" width="1044" height="72" rx="20" fill="rgba(255,255,255,0.16)"/>
    <circle cx="332" cy="256" r="10" fill="#FF6B6B"/>
    <circle cx="368" cy="256" r="10" fill="#FBBF24"/>
    <circle cx="404" cy="256" r="10" fill="#34D399"/>

    <rect x="278" y="340" width="300" height="440" rx="24" fill="rgba(255,255,255,0.12)"/>
    <rect x="298" y="370" width="118" height="18" rx="9" fill="rgba(255,255,255,0.62)"/>
    <rect x="298" y="408" width="260" height="14" rx="7" fill="rgba(255,255,255,0.23)"/>
    <rect x="298" y="438" width="220" height="14" rx="7" fill="rgba(255,255,255,0.18)"/>

    <rect x="620" y="340" width="702" height="200" rx="24" fill="rgba(255,255,255,0.12)"/>
    <rect x="650" y="372" width="180" height="18" rx="9" fill="rgba(255,255,255,0.62)"/>
    <rect x="650" y="416" width="632" height="16" rx="8" fill="rgba(255,255,255,0.18)"/>
    <rect x="650" y="448" width="590" height="16" rx="8" fill="rgba(255,255,255,0.14)"/>
    <rect x="650" y="480" width="640" height="16" rx="8" fill="rgba(255,255,255,0.14)"/>

    <rect x="620" y="572" width="702" height="208" rx="24" fill="rgba(255,255,255,0.12)"/>
    <rect x="650" y="606" width="160" height="18" rx="9" fill="rgba(255,255,255,0.62)"/>
    <rect x="650" y="648" width="320" height="86" rx="16" fill="rgba(255,255,255,0.16)"/>
    <rect x="985" y="648" width="307" height="86" rx="16" fill="rgba(255,255,255,0.16)"/>
  </g>

  <g>
    <circle cx="1240" cy="230" r="86" fill="url(#accent)" fill-opacity="0.88"/>
    <path d="M1215 230L1234 249L1271 212" stroke="white" stroke-width="14" stroke-linecap="round" stroke-linejoin="round"/>
  </g>
</svg>
